<?xml version="1.0" encoding="UTF-8"?>
<svg width="512" height="512" viewBox="0 0 512 512" fill="none" xmlns="http://www.w3.org/2000/svg">
  <rect width="512" height="512" fill="#1A1A1A"/>
  <path d="M96 256C96 167.634 167.634 96 256 96C344.366 96 416 167.634 416 256C416 344.366 344.366 416 256 416C167.634 416 96 344.366 96 256Z" fill="#D97706"/>
  <path d="M170 220C170 209.507 178.507 201 189 201H323C333.493 201 342 209.507 342 220V292C342 302.493 333.493 311 323 311H189C178.507 311 170 302.493 170 292V220Z" fill="#1A1A1A"/>
  <path d="M189 201H323C333.493 201 342 209.507 342 220V292C342 302.493 333.493 311 323 311H189C178.507 311 170 302.493 170 292V220C170 209.507 178.507 201 189 201Z" stroke="#D97706" stroke-width="12"/>
</svg>